<svg t="1623653939032" class="icon" viewBox="0 0 1024 1024" version="1.1" xmlns="http://www.w3.org/2000/svg" p-id="13113" width="200" height="200"><path d="M805.7 955H216.3C143.9 955 85 896.1 85 823.6V265.3C85 192.9 143.9 134 216.3 134h589.4c72.4 0 131.3 58.9 131.3 131.3v558.3c0 72.5-58.9 131.4-131.3 131.4zM216.3 222.5c-23.6 0-42.8 19.2-42.8 42.8v558.3c0 23.6 19.2 42.8 42.8 42.8h589.4c23.6 0 42.8-19.2 42.8-42.8V265.3c0-23.6-19.2-42.8-42.8-42.8H216.3z" fill="#cdcdcd" p-id="13114"></path><path d="M304.3 286.5c-24.4 0-44.2-19.8-44.2-44.2v-128c0-24.4 19.8-44.2 44.2-44.2s44.2 19.8 44.2 44.2v128c0 24.4-19.8 44.2-44.2 44.2zM690.8 286.5c-24.4 0-44.2-19.8-44.2-44.2v-128c0-24.4 19.8-44.2 44.2-44.2S735 89.9 735 114.3v128c0.1 24.4-19.7 44.2-44.2 44.2zM625.3 568.1H396.7c-24.4 0-44.2-19.8-44.2-44.2s19.8-44.2 44.2-44.2h228.6c24.4 0 44.2 19.8 44.2 44.2s-19.8 44.2-44.2 44.2zM625.3 699.1H396.7c-24.4 0-44.2-19.8-44.2-44.2s19.8-44.2 44.2-44.2h228.6c24.4 0 44.2 19.8 44.2 44.2s-19.8 44.2-44.2 44.2z" fill="#cdcdcd" p-id="13115"></path><path d="M511 784c-24.4 0-44.2-19.8-44.2-44.2v-196c0-24.4 19.8-44.2 44.2-44.2s44.2 19.8 44.2 44.2v196c0 24.4-19.8 44.2-44.2 44.2z" fill="#cdcdcd" p-id="13116"></path><path d="M493.9 541.9c-11.3 0-22.6-4.3-31.3-13l-87.5-87.5c-17.3-17.3-17.3-45.3 0-62.6s45.3-17.3 62.6 0l87.5 87.5c17.3 17.3 17.3 45.3 0 62.6-8.6 8.6-20 13-31.3 13z" fill="#cdcdcd" p-id="13117"></path><path d="M526.4 541.9c-11.3 0-22.6-4.3-31.3-13-17.3-17.3-17.3-45.3 0-62.6l89.2-89.2c17.3-17.3 45.3-17.3 62.6 0 17.3 17.3 17.3 45.3 0 62.6l-89.2 89.2c-8.7 8.6-20 13-31.3 13z" fill="#cdcdcd" p-id="13118"></path></svg>