<?xml version="1.0" standalone="no"?><!DOCTYPE svg PUBLIC "-//W3C//DTD SVG 1.1//EN" "http://www.w3.org/Graphics/SVG/1.1/DTD/svg11.dtd"><svg t="1633087935074" class="icon" viewBox="0 0 1024 1024" version="1.1" xmlns="http://www.w3.org/2000/svg" p-id="4492" xmlns:xlink="http://www.w3.org/1999/xlink" width="200" height="200"><defs><style type="text/css"></style></defs><path d="M579.632 560.915c0.287-1.062 0.592-2.143 0.914-3.239l-10.295 18.072c4.26-2.854 7.454-7.699 9.381-14.833z" fill="#cdcdcd" p-id="4493"></path><path d="M652.975 409.125C750.171 237.13 884.544 26.196 703.003 121.95c-245.272 129.368-439.311 0-439.311 0-129.613-73.778-17.551 128.675 107.949 287.378-154.999 37.509-265.539 135.359-265.539 250.154C106.101 806.672 287.828 926 512 926s405.899-119.508 405.899-266.7c0-114.642-110.25-212.557-264.924-250.175zM600 630v25h-74v25h74v25h-74v57h-30v-57h-73v-25h73v-25h-73v-25h60.124L412.28 505h34.898l50.603 90.079c5.698 10.237 10.121 19.215 13.261 26.893 2.675-6.165 7.443-15.634 14.308-28.432l11.428-21.141c-41.175-20.406-104.691-86.64-165.107-163.035 0.058-0.014 0.117-0.038 0.175-0.052 60.364 76.302 123.796 142.669 164.932 163.055L573.162 505h37.342l-29.957 52.634a157.544 157.544 0 0 0-0.914 3.26c-1.928 7.134-5.121 12.416-9.381 15.27L539.834 630H600z" fill="#cdcdcd" p-id="4494"></path></svg>