<svg t="1623653774389" class="icon" viewBox="0 0 1024 1024" version="1.1" xmlns="http://www.w3.org/2000/svg" p-id="8852" width="200" height="200"><path d="M943.616 263.048533A120.388267 120.388267 0 0 0 989.866667 168.157867a120.695467 120.695467 0 0 0-120.695467-120.695467 120.4224 120.4224 0 0 0-94.6176 45.892267 507.7504 507.7504 0 0 1 169.0624 169.693866zM79.428267 262.314667a507.562667 507.562667 0 0 1 169.557333-169.557334 120.4224 120.4224 0 0 0-94.1568-45.294933A120.695467 120.695467 0 0 0 34.133333 168.157867a120.354133 120.354133 0 0 0 45.294934 94.1568zM843.1616 810.103467a435.968 435.968 0 0 0 106.001067-285.457067c0-241.834667-196.0448-437.8624-437.8624-437.8624-241.834667 0-437.8624 196.0448-437.8624 437.8624a435.985067 435.985067 0 0 0 106.6496 286.208L71.901867 919.04a33.672533 33.672533 0 1 0 47.633066 47.633067l108.373334-108.373334a436.053333 436.053333 0 0 0 283.409066 104.209067 436.036267 436.036267 0 0 0 284.16-104.8576l109.021867 109.021867c6.570667 6.570667 15.189333 9.864533 23.808 9.864533s17.237333-3.293867 23.808-9.864533a33.672533 33.672533 0 0 0 0-47.633067l-108.9536-108.936533z m-139.246933-97.621334a33.604267 33.604267 0 0 1-25.617067 11.793067c-7.748267 0-15.530667-2.6624-21.879467-8.0896L479.232 564.616533a33.655467 33.655467 0 0 1-11.776-25.582933V355.822933a33.6896 33.6896 0 0 1 67.3792 0v167.68l165.393067 141.482667c14.114133 12.100267 15.7696 33.365333 3.6864 47.496533z" fill="#cdcdcd" p-id="8853"></path></svg>