<?xml version="1.0" standalone="no"?><!DOCTYPE svg PUBLIC "-//W3C//DTD SVG 1.1//EN" "http://www.w3.org/Graphics/SVG/1.1/DTD/svg11.dtd"><svg t="1574262268500" class="icon" viewBox="0 0 1024 1024" version="1.1" xmlns="http://www.w3.org/2000/svg" p-id="1584" xmlns:xlink="http://www.w3.org/1999/xlink" width="400" height="400"><defs><style type="text/css"></style></defs><path d="M939.084 130.299c-18.878-27.19-49.936-43.43-83.073-43.43-20.655 0-40.572 6.247-57.605 18.072-45.753 31.797-57.126 94.911-25.344 140.691a100.913 100.913 0 0 0 11.963 14.212L733.87 374.32a101.137 101.137 0 0 0-34.748-6.165c-20.669 0-40.586 6.248-57.605 18.072-27.22 18.912-42.269 48.898-43.308 79.727l-146.039 30.88a100.819 100.819 0 0 0-12.34-24.117c-18.891-27.176-49.95-43.403-83.086-43.403-20.655 0-40.572 6.247-57.606 18.072-45.753 31.81-57.113 94.91-25.33 140.69a101.15 101.15 0 0 0 7.952 10.013l-85.543 138.172a101.119 101.119 0 0 0-31.852-5.155c-20.669 0-40.585 6.247-57.605 18.072-22.173 15.392-37.031 38.508-41.816 65.096-4.785 26.575 1.066 53.41 16.472 75.568 18.879 27.19 49.937 43.43 83.073 43.43 20.655 0 40.573-6.247 57.605-18.072 22.173-15.407 37.019-38.522 41.803-65.097 4.785-26.574-1.066-53.422-16.472-75.58a101.288 101.288 0 0 0-4.982-6.57l86.866-140.308a101.188 101.188 0 0 0 27.586 3.835c20.654 0 40.572-6.247 57.604-18.071 21.336-14.83 35.191-36.464 40.686-59.97l156.764-33.149a102.026 102.026 0 0 0 4.224 6.616c18.892 27.176 49.95 43.402 83.072 43.402 20.67 0 40.586-6.248 57.606-18.071 45.767-31.797 57.127-94.897 25.344-140.678a102.032 102.032 0 0 0-2.245-3.09l54.432-121.806a101.09 101.09 0 0 0 21.754 2.372c20.67 0 40.586-6.248 57.605-18.072 22.173-15.392 37.032-38.508 41.816-65.097 4.785-26.574-1.066-53.408-16.472-75.567zM208.793 840.18c-2.133 11.851-8.763 22.159-18.646 29.035-19.822 13.793-49.09 8.353-62.745-11.319-6.876-9.883-9.487-21.858-7.355-33.696 2.133-11.851 8.763-22.159 18.66-29.035 7.587-5.277 16.459-8.065 25.658-8.065a45.162 45.162 0 0 1 24.27 7.09 28.255 28.255 0 0 0 3.206 2.315c0.14 0.087 0.286 0.16 0.428 0.245a44.918 44.918 0 0 1 9.17 9.72c6.876 9.883 9.486 21.857 7.354 33.71z m173.76-272.757c-19.835 13.807-49.103 8.338-62.76-11.291-14.176-20.424-9.104-48.57 11.292-62.76 7.6-5.277 16.472-8.065 25.658-8.065 14.805 0 28.68 7.245 37.1 19.371a44.795 44.795 0 0 1 8.033 24.749c-0.012 0.475-0.012 0.952 0 1.43-0.163 14.098-6.892 27.921-19.324 36.566z m342.35-61.173c-19.794 13.765-49.09 8.38-62.745-11.292-14.176-20.423-9.104-48.569 11.305-62.744 7.587-5.277 16.459-8.065 25.658-8.065 14.791 0 28.666 7.231 37.086 19.356 14.176 20.423 9.105 48.568-11.304 62.745z m175.55-310.309c-2.133 11.851-8.763 22.159-18.66 29.035-19.793 13.78-49.102 8.366-62.744-11.291-14.176-20.424-9.105-48.57 11.305-62.76 7.6-5.275 16.472-8.064 25.658-8.064 14.805 0 28.666 7.245 37.086 19.384 6.876 9.882 9.487 21.858 7.355 33.696z" fill="#BFCBCF" p-id="1585"></path></svg>